<mxfile host="app.diagrams.net" modified="2023-08-30T11:06:17.962Z" agent="Mozilla/5.0 (Windows NT 10.0; Win64; x64; rv:109.0) Gecko/20100101 Firefox/116.0" etag="hudkSN5AYC_EQTmwTOzX" version="21.5.2" type="device">
  <diagram name="PÃ¡gina-1" id="xNhPNnMRd9htXLf8wS57">
    <mxGraphModel dx="1050" dy="515" grid="1" gridSize="10" guides="1" tooltips="1" connect="1" arrows="1" fold="1" page="1" pageScale="1" pageWidth="827" pageHeight="1169" math="0" shadow="0">
      <root>
        <mxCell id="0" />
        <mxCell id="1" parent="0" />
        <mxCell id="IrRJ5_O-pY0Ifu8mV4sr-35" value="&lt;font style=&quot;font-size: 18px;&quot;&gt;Data Storage&lt;/font&gt;" style="text;html=1;strokeColor=none;fillColor=none;align=center;verticalAlign=middle;whiteSpace=wrap;rounded=0;" parent="1" vertex="1">
          <mxGeometry x="410" y="230" width="60" height="30" as="geometry" />
        </mxCell>
        <mxCell id="g9L9M4cXe2nwXgYZEAq0-2" value="&lt;font style=&quot;font-size: 24px;&quot;&gt;Data Consumer&lt;/font&gt;" style="text;html=1;strokeColor=none;fillColor=none;align=center;verticalAlign=middle;whiteSpace=wrap;rounded=0;" parent="1" vertex="1">
          <mxGeometry x="400" y="90" width="80" height="30" as="geometry" />
        </mxCell>
        <mxCell id="g9L9M4cXe2nwXgYZEAq0-20" value="" style="edgeStyle=orthogonalEdgeStyle;rounded=0;orthogonalLoop=1;jettySize=auto;html=1;" parent="1" source="g9L9M4cXe2nwXgYZEAq0-3" target="g9L9M4cXe2nwXgYZEAq0-10" edge="1">
          <mxGeometry relative="1" as="geometry" />
        </mxCell>
        <mxCell id="g9L9M4cXe2nwXgYZEAq0-3" value="" style="verticalLabelPosition=bottom;html=1;verticalAlign=top;align=center;strokeColor=none;fillColor=#00BEF2;shape=mxgraph.azure.sql_database;" parent="1" vertex="1">
          <mxGeometry x="400" y="278" width="80" height="110" as="geometry" />
        </mxCell>
        <mxCell id="g9L9M4cXe2nwXgYZEAq0-19" value="" style="edgeStyle=orthogonalEdgeStyle;rounded=0;orthogonalLoop=1;jettySize=auto;html=1;entryX=0;entryY=0.5;entryDx=0;entryDy=0;entryPerimeter=0;" parent="1" source="g9L9M4cXe2nwXgYZEAq0-9" target="g9L9M4cXe2nwXgYZEAq0-3" edge="1">
          <mxGeometry relative="1" as="geometry">
            <mxPoint x="-160" y="330" as="targetPoint" />
          </mxGeometry>
        </mxCell>
        <mxCell id="g9L9M4cXe2nwXgYZEAq0-9" value="&lt;font style=&quot;font-size: 24px;&quot;&gt;Data queue start&lt;br&gt;&lt;/font&gt;" style="text;html=1;strokeColor=none;fillColor=none;align=center;verticalAlign=middle;whiteSpace=wrap;rounded=0;" parent="1" vertex="1">
          <mxGeometry x="240" y="318" width="80" height="30" as="geometry" />
        </mxCell>
        <mxCell id="g9L9M4cXe2nwXgYZEAq0-10" value="&lt;font style=&quot;font-size: 24px;&quot;&gt;Data queue finish&lt;br&gt;&lt;/font&gt;" style="text;html=1;strokeColor=none;fillColor=none;align=center;verticalAlign=middle;whiteSpace=wrap;rounded=0;" parent="1" vertex="1">
          <mxGeometry x="530" y="318" width="80" height="30" as="geometry" />
        </mxCell>
      </root>
    </mxGraphModel>
  </diagram>
</mxfile>
